<svg width="15" height="14" viewBox="0 0 15 14" fill="none" xmlns="http://www.w3.org/2000/svg">
<path d="M8.43275 1.67747C8.37583 1.26514 8.02341 0.958008 7.60725 0.958008H7.39308C6.97691 0.958008 6.6245 1.26514 6.56758 1.67747L6.495 2.20393C6.44866 2.5398 6.20041 2.80715 5.88533 2.93236C5.8385 2.95097 5.792 2.97037 5.74597 2.99055C5.4353 3.12667 5.07048 3.11501 4.79913 2.9115L4.54282 2.71927C4.21105 2.47044 3.7468 2.50343 3.45356 2.79667L3.29717 2.95307C3.00393 3.24632 2.97093 3.71056 3.21975 4.04232L3.41199 4.29864C3.6155 4.56998 3.62716 4.93481 3.49104 5.24548C3.47086 5.29152 3.45146 5.33801 3.43285 5.38484C3.30764 5.69992 3.04029 5.94817 2.70442 5.99451L2.17796 6.06709C1.76563 6.12401 1.4585 6.47634 1.4585 6.89259V7.10676C1.4585 7.52292 1.76563 7.87534 2.17796 7.93226L2.70442 8.00484C3.04029 8.05117 3.30764 8.29942 3.43285 8.61451C3.45146 8.66134 3.47086 8.70784 3.49104 8.75384C3.62716 9.06451 3.6155 9.42934 3.41199 9.70067L3.21975 9.95701C2.97093 10.2888 3.00392 10.753 3.29716 11.0463L3.45356 11.2027C3.7468 11.4959 4.21105 11.5289 4.54281 11.2801L4.79913 11.0878C5.07047 10.8843 5.4353 10.8727 5.74596 11.0088C5.792 11.029 5.8385 11.0483 5.88533 11.067C6.20041 11.1922 6.44866 11.4596 6.495 11.7954L6.56758 12.3218C6.6245 12.7342 6.97691 13.0413 7.39308 13.0413H7.60725C8.02341 13.0413 8.37583 12.7342 8.43275 12.3218L8.50533 11.7954C8.55166 11.4596 8.79991 11.1922 9.115 11.067C9.16183 11.0483 9.20833 11.029 9.25433 11.0088C9.565 10.8727 9.92983 10.8843 10.2012 11.0878L10.4575 11.2801C10.7892 11.5289 11.2535 11.4959 11.5467 11.2027L11.7032 11.0463C11.9964 10.753 12.0294 10.2888 11.7806 9.95701L11.5883 9.70067C11.3848 9.42934 11.3732 9.06451 11.5093 8.75384C11.5295 8.70784 11.5488 8.66134 11.5675 8.61451C11.6927 8.29942 11.9601 8.05117 12.2959 8.00484L12.8223 7.93226C13.2347 7.87534 13.5418 7.52292 13.5418 7.10676V6.89259C13.5418 6.47642 13.2347 6.12401 12.8223 6.06709L12.2959 5.99451C11.9601 5.94817 11.6927 5.69992 11.5675 5.38484C11.5488 5.33801 11.5295 5.29152 11.5092 5.24547C11.3732 4.93481 11.3848 4.56998 11.5883 4.29863L11.7806 4.04234C12.0294 3.71057 11.9964 3.24633 11.7032 2.95309L11.5467 2.79669C11.2535 2.50345 10.7892 2.47046 10.4575 2.71928L10.2012 2.9115C9.92983 3.11502 9.565 3.12667 9.25433 2.99055C9.20833 2.97037 9.16183 2.95097 9.115 2.93236C8.79991 2.80715 8.55166 2.5398 8.50533 2.20393L8.43275 1.67747Z" stroke="#050552" stroke-opacity="0.8" stroke-width="1.25" stroke-linecap="round" stroke-linejoin="round"/>
</svg>
